<?xml version="1.0" encoding="UTF-8"?>
<svg version="1.1" xmlns="http://www.w3.org/2000/svg" width="32" height="32">
<path d="M0 0 C5.32560965 -0.35012659 8.7978303 0.64180428 13.15625 3.75 C16.30587409 6.54473687 17.57054578 9.24270112 18.09375 13.3984375 C18.31209484 18.40357301 17.68356985 21.98104298 14.8203125 26.2265625 C10.86899573 30.41030966 6.43388853 31.75394184 0.8203125 32.2265625 C-4.78231092 31.38616899 -7.52910988 29.50295342 -11.1796875 25.2265625 C-13.47262034 21.78716323 -13.44988388 20.40093569 -13.4296875 16.3515625 C-13.43484375 15.32289062 -13.44 14.29421875 -13.4453125 13.234375 C-13.17474024 10.1705421 -12.4457892 8.0090978 -11.1796875 5.2265625 C-10.9528125 4.4840625 -10.7259375 3.7415625 -10.4921875 2.9765625 C-9.1796875 1.2265625 -9.1796875 1.2265625 -6.1171875 0.4765625 C-4.07605656 0.34696688 -2.03428121 0.21144858 0 0 Z " fill="#FDF6F2" transform="translate(14.1796875,-0.2265625)"/>
<path d="M0 0 C2.5 -0.4375 2.5 -0.4375 6 0 C8.91534977 2.08463182 11.46217125 4.47505363 14 7 C12 8 12 8 9 7.875 C8.01 7.91625 7.02 7.9575 6 8 C3.70595156 11.44107266 3.73706944 12.96839809 4 17 C5.18424326 18.41577477 5.18424326 18.41577477 8.5625 18.0625 C10.2640625 18.0315625 10.2640625 18.0315625 12 18 C12.33 22.29 12.66 26.58 13 31 C2.23062798 29.4204921 2.23062798 29.4204921 -2 24 C-4.29293284 20.56060073 -4.27019638 19.17437319 -4.25 15.125 C-4.25515625 14.09632812 -4.2603125 13.06765625 -4.265625 12.0078125 C-3.86894145 7.51595461 -2.05229889 3.95800499 0 0 Z " fill="#E3651A" transform="translate(5,1)"/>
<path d="M0 0 C3.67223967 0.5040329 6.0627553 1.4490261 9.1875 3.4375 C10.359375 5.546875 10.359375 5.546875 11.1875 7.4375 C9.63174022 8.28334998 8.0675388 9.11368399 6.5 9.9375 C5.62988281 10.4015625 4.75976562 10.865625 3.86328125 11.34375 C1.02744572 12.50292365 -0.78384465 12.80898754 -3.8125 12.4375 C-5.8125 10.4375 -5.8125 10.4375 -6.125 7.5625 C-5.66609168 2.97341676 -4.75410369 0.73952724 0 0 Z " fill="#F6F0ED" transform="translate(13.8125,7.5625)"/>
<path d="M0 0 C5.90919623 -0.52760681 9.40875491 0.08268027 14.30078125 3.5234375 C17.4903772 6.29508639 18.7488809 9.00539689 19.2734375 13.171875 C19.49178234 18.17701051 18.86325735 21.75448048 16 26 C13.16056336 28.6938245 10.91025991 30.42070224 7 31 C7 30.01 7 29.02 7 28 C8.99330842 26.65668346 10.99384866 25.32405988 13 24 C15.7937023 19.64593555 15.7618155 15.0004273 15 10 C12.92080172 6.78059622 11.4147049 5.38910389 7.69921875 4.3671875 C6.10549578 4.04691781 4.50143289 3.77337334 2.890625 3.5546875 C2.26671875 3.37164062 1.6428125 3.18859375 1 3 C0.67 2.01 0.34 1.02 0 0 Z " fill="#E46B23" transform="translate(13,0)"/>
<path d="M0 0 C0.99 0.33 1.98 0.66 3 1 C2.67 1.66 2.34 2.32 2 3 C2.99 3 3.98 3 5 3 C5 4.65 5 6.3 5 8 C3.02 8.99 3.02 8.99 1 10 C0.34 8.35 -0.32 6.7 -1 5 C-1.33 6.65 -1.66 8.3 -2 10 C-2.33 10 -2.66 10 -3 10 C-3.36923077 4.58461538 -3.36923077 4.58461538 -1.5 1.625 C-1.005 1.08875 -0.51 0.5525 0 0 Z " fill="#E5D5CD" transform="translate(11,8)"/>
<path d="M0 0 C1.9375 0.8125 1.9375 0.8125 4 2 C4.33 2.99 4.66 3.98 5 5 C3.02 5.99 1.04 6.98 -1 8 C-1.125 2.25 -1.125 2.25 0 0 Z " fill="#E56F28" transform="translate(20,10)"/>
<path d="M0 0 C0.99 0 1.98 0 3 0 C3 1.65 3 3.3 3 5 C1.02 5.99 1.02 5.99 -1 7 C-1.04254356 5.00045254 -1.04080783 2.99958364 -1 1 C-0.67 0.67 -0.34 0.34 0 0 Z " fill="#31597F" transform="translate(13,11)"/>
<path d="M0 0 C0.33 0 0.66 0 1 0 C1.0825 0.78375 1.165 1.5675 1.25 2.375 C1.72806339 5.14749104 1.72806339 5.14749104 4.0625 6.3125 C4.701875 6.539375 5.34125 6.76625 6 7 C5 8 5 8 2.5 8.125 C0 8 0 8 -1 7 C-1.125 4 -1.125 4 -1 1 C-0.67 0.67 -0.34 0.34 0 0 Z " fill="#FCFBFA" transform="translate(10,12)"/>
</svg>
